<?xml version="1.0" encoding="UTF-8" standalone="no"?>
<!DOCTYPE svg PUBLIC "-//W3C//DTD SVG 1.1//EN" "http://www.w3.org/Graphics/SVG/1.1/DTD/svg11.dtd">
<svg width="100%" height="100%" viewBox="0 0 566 250" version="1.1" xmlns="http://www.w3.org/2000/svg" xmlns:xlink="http://www.w3.org/1999/xlink" xml:space="preserve" xmlns:serif="http://www.serif.com/" style="fill-rule:evenodd;clip-rule:evenodd;stroke-linejoin:round;stroke-miterlimit:2;">
    <g transform="matrix(1,0,0,1,-960,-1648.79)">
        <g transform="matrix(1.875,0,0,1.05469,0,1233.34)">
            <g transform="matrix(0.533333,0,0,0.948148,318.206,389.31)">
                <path d="M477.056,71.696L477.056,63.2L391.952,63.2L391.952,74.432L465.248,74.432C464.384,108.272 448.832,124.688 409.664,158.384L417.296,167.024C456.752,133.04 477.056,114.32 477.056,71.696ZM584.192,115.328L589.088,123.968C608.672,112.736 618.032,107.408 618.032,92.432L618.032,82.352L537.392,82.352L537.392,92L607.808,92L607.808,92.432C607.808,101.36 604.208,103.952 584.192,115.328ZM548.912,164L556.688,170.48C575.12,149.6 579.44,144.56 579.44,101.792L569.072,101.792C569.072,140.096 566.912,143.264 548.912,164ZM684.416,63.056L684.416,74.288L721.424,74.288L721.424,63.056L684.416,63.056ZM773.984,92.432L763.76,87.68C763.76,87.68 760.736,94.736 756.704,102.512C742.016,131.888 731.936,153.92 698.24,153.92L687.728,153.92L687.728,164.432L698.24,164.432C739.424,164.432 752.096,137.936 767.216,107.264C768.8,103.952 773.984,92.432 773.984,92.432ZM721.424,101.36L721.424,90.56L684.416,90.56L684.416,101.36L721.424,101.36ZM826.544,158.96L833.312,168.32C884.576,131.456 898.688,115.328 898.688,73.136L898.688,59.456L886.736,59.456L886.736,73.136C886.736,110.72 875.072,123.968 826.544,158.96Z" style="fill:rgb(168,168,168);fill-rule:nonzero;"/>
            </g>
        </g>
        <g transform="matrix(1.875,0,0,1.05469,0,1233.34)">
            <g transform="matrix(0.533333,0,0,0.948148,318.206,389.31)">
                <path d="M473.056,67.696L473.056,59.2L387.952,59.2L387.952,70.432L461.248,70.432C460.384,104.272 444.832,120.688 405.664,154.384L413.296,163.024C452.752,129.04 473.056,110.32 473.056,67.696ZM580.192,111.328L585.088,119.968C604.672,108.736 614.032,103.408 614.032,88.432L614.032,78.352L533.392,78.352L533.392,88L603.808,88L603.808,88.432C603.808,97.36 600.208,99.952 580.192,111.328ZM544.912,160L552.688,166.48C571.12,145.6 575.44,140.56 575.44,97.792L565.072,97.792C565.072,136.096 562.912,139.264 544.912,160ZM680.416,59.056L680.416,70.288L717.424,70.288L717.424,59.056L680.416,59.056ZM769.984,88.432L759.76,83.68C759.76,83.68 756.736,90.736 752.704,98.512C738.016,127.888 727.936,149.92 694.24,149.92L683.728,149.92L683.728,160.432L694.24,160.432C735.424,160.432 748.096,133.936 763.216,103.264C764.8,99.952 769.984,88.432 769.984,88.432ZM717.424,97.36L717.424,86.56L680.416,86.56L680.416,97.36L717.424,97.36ZM822.544,154.96L829.312,164.32C880.576,127.456 894.688,111.328 894.688,69.136L894.688,55.456L882.736,55.456L882.736,69.136C882.736,106.72 871.072,119.968 822.544,154.96Z" style="fill:rgb(240,240,240);fill-rule:nonzero;"/>
            </g>
        </g>
        <g transform="matrix(1.875,0,0,1.05469,0,1233.34)">
            <g transform="matrix(0.533333,0,0,0.948148,318.206,389.31)">
                <path d="M600.204,6.144L582.312,6.144L582.312,33.648L585.156,33.648L585.156,20.616L597.936,20.616L597.936,18.276L585.12,18.276L585.12,8.592L600.204,8.592L600.204,6.144ZM611.386,12.408L604.15,12.408L604.15,14.676L611.278,14.676C613.618,14.676 616.138,15.18 616.138,17.952L616.138,20.544C614.806,20.508 613.294,20.472 611.746,20.472C610.198,20.472 608.65,20.616 607.246,20.976C604.438,21.732 602.314,23.496 602.314,27.564C602.314,32.028 605.194,33.684 609.19,33.684C611.962,33.684 614.482,32.964 616.21,30.804L616.354,33.648L618.874,33.648L618.874,17.916C618.874,13.452 615.202,12.408 611.386,12.408ZM611.35,22.632L616.138,22.632L616.138,28.644C614.518,30.48 612.178,31.38 609.766,31.38C607.174,31.38 605.23,30.48 605.23,27.42C605.23,23.352 608.002,22.632 611.35,22.632ZM631.467,14.82L638.343,14.82L638.343,12.408L630.855,12.408C627.003,12.408 623.583,13.56 623.583,18.024C623.583,22.488 626.931,23.388 630.279,23.964C631.107,24.108 631.935,24.216 632.727,24.36C633.519,24.54 634.239,24.72 634.887,24.972C636.111,25.476 636.975,26.34 636.975,27.888C636.975,30.912 633.915,31.2 631.611,31.2L624.123,31.2L624.123,33.648L631.755,33.648C635.895,33.648 639.783,32.82 639.783,27.816C639.783,23.568 636.435,22.632 633.123,21.984C632.295,21.804 631.431,21.66 630.675,21.516C629.883,21.336 629.163,21.12 628.551,20.868C627.291,20.292 626.499,19.464 626.499,17.952C626.499,14.928 629.127,14.82 631.467,14.82ZM650.941,14.82L657.854,14.82L657.782,12.408L650.978,12.408C646.154,12.408 643.67,14.388 643.67,18.204L643.67,27.888C643.67,31.74 646.082,33.648 650.978,33.648L657.854,33.648L657.782,31.2L650.978,31.2C648.314,31.2 646.55,30.876 646.55,27.564L646.55,18.528C646.55,15.18 648.314,14.82 650.941,14.82ZM665.515,4.848L662.707,4.848L662.707,8.808L665.515,8.808L665.515,4.848ZM665.515,12.408L662.707,12.408L662.707,33.648L665.515,33.648L665.515,12.408ZM685.573,33.648L688.453,33.648L688.453,18.42C688.453,14.568 686.221,12.228 682.657,12.228C679.885,12.228 676.681,13.56 674.377,16.008L674.161,12.84L671.785,12.84L671.785,33.648L674.629,33.648L674.629,18.492C675.889,16.584 679.165,14.532 681.865,14.532C684.277,14.532 685.573,15.972 685.573,18.456L685.573,33.648ZM702.983,12.408L701.111,12.408C696.251,12.408 693.803,14.424 693.803,18.456L693.803,27.636C693.803,31.632 696.251,33.648 701.111,33.648L702.983,33.648C707.843,33.648 710.363,31.632 710.363,27.636L710.363,18.456C710.363,14.46 707.807,12.408 702.983,12.408ZM707.483,18.528L707.483,27.564C707.483,30.876 705.647,31.2 703.019,31.2L701.111,31.2C698.807,31.2 696.683,30.84 696.683,27.276L696.683,18.528C696.683,15.18 698.447,14.856 701.075,14.856L703.055,14.856C705.683,14.856 707.483,15.18 707.483,18.528Z" style="fill:rgb(183,201,228);fill-rule:nonzero;"/>
            </g>
        </g>
        <g transform="matrix(1.875,0,0,1.05469,0,1233.34)">
            <g transform="matrix(0.533333,0,0,0.948148,318.206,389.31)">
                <path d="M363.4,236.42L363.364,236.42L363.364,239.984C365.2,237.896 367.576,236.024 370.24,236.024C371.68,236.024 373.228,237.104 374.956,238.292C376.972,239.696 379.204,241.244 381.868,241.244C384.532,241.244 386.8,240.164 388.636,238.256L388.636,234.728C386.836,236.816 384.388,238.688 381.724,238.688C380.284,238.688 378.592,237.572 376.864,236.384C374.812,234.98 372.58,233.468 370.132,233.468C367.468,233.468 365.236,234.548 363.4,236.42ZM431.044,224.756L420.928,224.756L420.928,227.276L428.308,227.276C428.164,230.192 427.588,234.008 426.76,237.14C424.78,237.14 418.228,237.284 417.148,242.648C416.752,244.7 417.328,246.212 418.624,247.364C419.92,248.516 421.828,248.624 423.412,247.796C425.5,246.86 427.264,244.232 428.776,239.552C431.332,239.66 434.068,239.984 436.696,240.488C436.12,244.088 434.788,246.932 431.764,250.712L433.924,252.368C437.128,248.228 438.676,245.024 439.396,241.064L443.392,242L443.86,239.66C443.86,239.66 442.06,239.084 439.684,238.652C439.756,237.464 439.792,231.56 439.792,231.56L437.02,231.56C437.02,231.56 436.984,237.068 436.948,238.112C434.536,237.68 431.692,237.356 429.568,237.212C430.72,232.532 431.044,228.392 431.044,224.756ZM422.08,245.492C420.604,245.996 419.56,244.952 419.776,243.368C420.208,240.2 424.132,239.732 425.968,239.588C424.744,242.972 423.484,245.024 422.08,245.492ZM478.348,251.36L478.348,248.84C476.8,249.128 475.36,249.416 474.136,249.416C473.164,249.416 472.372,249.272 471.652,248.948C470.968,248.66 470.212,247.976 470.212,245.528L470.212,242.18C470.212,239.012 468.484,237.356 465.388,237.356L462.364,237.356L467.62,224.216L465.172,223.244L453.904,250.892L456.352,251.9L461.356,239.732L465.388,239.732C466.9,239.732 467.332,240.344 467.332,241.964L467.332,245.168C467.332,248.336 468.484,250.46 470.5,251.324C471.58,251.756 472.732,252.008 474.028,252.008C475.18,252.008 477.124,251.684 478.348,251.36ZM488.392,245.06L490.768,246.392C493.576,241.136 495.952,235.52 497.752,229.472L503.332,229.472L503.332,226.952L498.544,226.952C499.048,225.116 499.444,223.568 499.66,222.848L497.068,222.236C496.78,223.208 496.312,225.008 495.772,226.952L490.48,226.952L490.48,229.472L494.944,229.472C493.216,235.052 491.02,240.272 488.392,245.06ZM511.936,234.836L514.384,234.836L514.384,232.748L506.284,232.604C503.872,232.568 502.288,233.072 499.876,234.512L501.208,236.456C503.368,235.088 504.196,234.728 507.976,234.728C506.896,235.916 506.284,237.32 506.32,239.768L506.32,243.548C504.592,243.188 503.8,243.08 502.252,243.26C499.732,243.548 498.04,244.628 497.464,246.212C496.168,249.92 500.308,252.224 503.656,252.224C507.004,252.224 508.912,250.64 508.876,247.04C510.532,247.796 511.9,248.552 514.384,250.064L515.68,247.868C512.908,246.248 511.036,245.168 508.876,244.376L508.876,239.876C508.804,236.42 510.1,234.836 511.936,234.836ZM506.464,246.032L506.464,246.716C506.464,248.66 505.924,249.812 503.728,249.812C503.044,249.812 499.84,249.452 499.804,247.544C499.804,246.896 500.272,246.248 501.208,245.924C501.928,245.672 502.864,245.564 503.476,245.564C504.34,245.564 505.312,245.708 506.464,246.032ZM537.496,248.228L537.604,250.856C543.22,250.64 547.54,248.228 550.06,243.224C552.004,239.228 551.788,234.764 549.448,231.128C547.216,227.708 543.328,225.692 538.9,225.692C532.384,225.692 525.004,230.516 524.536,239.588C524.428,241.604 524.68,245.384 527.056,247.652C529.252,249.704 532.852,249.596 535.228,245.996C537.136,243.188 538.108,239.66 538.72,237.212C539.44,234.44 539.836,231.452 539.98,228.176C543.004,228.572 545.56,230.084 547.108,232.532C548.944,235.412 549.124,238.868 547.54,242C545.452,246.32 542.176,247.832 537.496,248.228ZM536.056,236.528C535.444,239.048 534.508,242.216 532.924,244.628C531.88,246.284 530.26,247.112 528.964,245.852C527.2,244.16 527.2,240.704 527.272,239.732C527.632,232.676 532.888,228.932 537.172,228.248C537.028,231.236 536.632,234.008 536.056,236.528ZM574.324,248.264L574.324,234.8L574.288,234.8C575.512,234.404 576.664,234.008 577.852,233.612L577.852,245.42L580.372,245.42L580.372,232.748L580.336,232.748C581.884,232.244 583.468,231.704 585.016,231.164L585.016,239.876C585.016,240.488 584.8,241.028 584.116,241.028C583.324,241.028 582.424,240.92 581.524,240.74L581.956,243.224C582.856,243.296 583.792,243.332 584.692,243.332C586.888,243.332 587.428,242.576 587.428,240.488L587.428,229.472L585.988,228.428L580.372,230.264L580.372,221.516L577.852,221.516L577.852,231.092L577.888,231.092L574.324,232.244L574.324,223.676L571.804,223.676L571.804,233.072L571.84,233.072L568.096,234.332L568.744,236.708L571.804,235.664L571.804,249.2C571.804,250.064 571.912,251.144 572.668,251.684C573.748,252.404 578.068,252.404 579.292,252.404C580.804,252.404 586.492,252.44 587.68,251.432C588.688,250.568 589.012,246.5 589.156,245.276L586.672,244.412C586.672,245.312 586.528,248.228 586.06,248.912C585.412,249.848 581.164,249.848 580.156,249.848C579.364,249.848 575.548,249.848 574.9,249.56C574.396,249.344 574.324,248.804 574.324,248.264ZM565.9,230.336L565.9,222.056L563.416,222.056L563.416,230.336L559.204,230.336L559.204,232.748L563.416,232.748L563.416,246.392L563.452,246.392C561.904,246.932 560.284,247.4 558.7,247.868L559.744,250.388C563.524,249.092 567.232,247.688 570.796,246.068L570.544,243.728C569.032,244.34 567.448,244.988 565.9,245.564L565.9,232.748L570.256,232.748L570.256,230.336L565.9,230.336ZM617.884,233.684L617.632,230.444C617.632,230.372 617.632,230.336 617.596,230.264L624.976,230.264L624.976,227.96L617.524,227.96C617.38,225.692 617.38,223.424 617.308,221.12L614.932,221.12C614.968,223.388 615.04,225.836 615.112,228.104L603.844,228.104L603.844,230.372L601.108,230.372L601.108,222.056L598.696,222.056L598.696,230.372L594.916,230.372L594.916,232.748L598.696,232.748L598.696,244.772L598.732,244.772C597.4,245.24 595.924,245.708 594.412,246.104L595.24,248.696C598.624,247.508 601.792,246.176 604.852,244.592L604.6,242.504L601.108,243.908L601.108,232.748L604.564,232.748L604.564,230.408L615.22,230.408C615.508,234.764 615.868,239.876 616.948,244.16C614.968,247.076 612.34,249.668 609.46,251.648L611.116,253.664C613.708,251.756 615.976,249.56 617.848,246.968C618.424,248.48 620.692,253.016 622.384,253.016C624.04,253.016 625.192,246.644 625.408,245.564L623.176,243.764L623.14,244.088C622.996,245.276 622.312,249.092 621.88,249.092C621.124,249.092 619.936,245.636 619.54,244.628L619.468,244.448C621.412,241.1 622.78,237.356 623.86,233.684L621.556,232.64C620.836,235.556 619.972,238.436 618.64,241.136C618.208,238.652 618.064,236.132 617.884,233.684ZM621.736,226.916L621.808,226.916L623.86,225.62C623.032,224.288 622.132,222.992 621.016,221.732L618.928,222.812C619.972,224 620.872,225.44 621.736,226.916ZM605.572,233.216L605.572,241.928L613.96,241.928L613.96,233.216L605.572,233.216ZM611.728,235.304L611.728,239.84L607.768,239.84L607.768,235.304L611.728,235.304ZM603.7,246.428L603.664,246.428L604.492,248.912C608.056,247.976 611.512,246.932 614.968,245.528L614.896,243.368C611.224,244.628 607.552,245.708 603.7,246.428ZM645.496,248.228L645.604,250.856C651.22,250.64 655.54,248.228 658.06,243.224C660.004,239.228 659.788,234.764 657.448,231.128C655.216,227.708 651.328,225.692 646.9,225.692C640.384,225.692 633.004,230.516 632.536,239.588C632.428,241.604 632.68,245.384 635.056,247.652C637.252,249.704 640.852,249.596 643.228,245.996C645.136,243.188 646.108,239.66 646.72,237.212C647.44,234.44 647.836,231.452 647.98,228.176C651.004,228.572 653.56,230.084 655.108,232.532C656.944,235.412 657.124,238.868 655.54,242C653.452,246.32 650.176,247.832 645.496,248.228ZM644.056,236.528C643.444,239.048 642.508,242.216 640.924,244.628C639.88,246.284 638.26,247.112 636.964,245.852C635.2,244.16 635.2,240.704 635.272,239.732C635.632,232.676 640.888,228.932 645.172,228.248C645.028,231.236 644.632,234.008 644.056,236.528ZM684.088,245.456L684.052,245.456C685.708,243.404 686.86,241.1 687.76,238.688L687.76,249.272L690.1,249.272L690.1,238.4C691.396,241.172 693.16,243.8 695.32,246.068L697.156,243.98C694.456,241.784 692.116,238.616 690.532,235.484L696.652,235.484L696.652,233.396L690.1,233.396L690.1,228.68L695.752,228.68L695.752,226.592L690.1,226.592L690.1,221.48L687.76,221.48L687.76,226.592L683.044,226.592L683.044,228.68L687.76,228.68L687.76,233.396L682.288,233.396L682.288,235.484L687.112,235.484C686.176,238.184 684.772,241.064 682.9,243.188L682.36,242.36L680.848,243.296C681.244,244.016 681.64,244.772 681.964,245.528L682,245.528C681.172,245.744 680.38,245.816 679.552,245.96C680.308,244.232 680.92,242.36 681.388,240.56L679.264,239.984C678.832,242.108 678.292,244.16 677.716,246.176C677.572,246.176 677.5,246.176 677.392,246.212L677.176,246.212L677.176,239.084L681.496,239.084L681.496,225.224L674.62,225.224C675.232,224.036 675.772,222.776 676.204,221.516L673.504,221.012C673.252,222.416 672.856,223.928 672.388,225.224L667.996,225.224L667.996,239.084L670.912,239.084C670.876,243.836 670.516,248.84 666.448,251.972L668.068,253.952C672.64,249.956 673.072,244.628 673.216,239.084L674.944,239.084L674.944,249.596C674.944,250.712 675.16,251.9 676.24,252.476C677.644,253.052 683.836,253.052 685.24,253.052C686.86,253.052 694.096,253.052 695.68,252.26C697.012,251.396 697.228,248.408 697.228,247.04L694.888,246.104C694.888,246.932 694.816,248.552 694.6,249.272C694.312,250.172 693.664,250.316 692.872,250.388C690.892,250.604 688.624,250.604 686.608,250.604L685.816,250.604C684.844,250.604 678.508,250.64 677.788,250.28C677.284,250.064 677.176,249.704 677.176,249.092L677.176,248.264L677.104,248.264C678.976,247.976 680.812,247.652 682.576,247.148C682.792,247.76 682.936,248.3 683.08,248.912L684.952,247.724C684.7,247.004 684.412,246.248 684.088,245.456ZM673.576,231.056L670.12,231.056L670.12,227.24L673.576,227.24L673.576,231.056ZM679.372,227.24L679.372,231.056L675.7,231.056L675.7,227.24L679.372,227.24ZM673.576,237.068L670.12,237.068L670.12,232.964L673.576,232.964L673.576,237.068ZM679.372,232.964L679.372,237.068L675.7,237.068L675.7,232.964L679.372,232.964ZM730.24,228.824L718.54,228.824L718.54,222.056L715.768,222.056L715.768,229.112L705.112,229.112L705.112,231.596L715.732,231.596C715.372,239.84 712.168,247.22 704.536,251.036L706.336,253.412C714.976,248.156 717.964,240.776 718.468,231.272L727.468,231.272C727.432,232.244 727.432,233.144 727.396,234.08C727.324,236.852 727.18,240.38 727,243.152C726.964,243.512 726.964,243.836 726.928,244.196C726.856,245.312 726.784,246.5 726.496,247.544C726.136,248.948 725.632,249.524 724.156,249.524C722.356,249.524 720.556,249.128 718.72,248.624L719.08,251.828C721.06,252.08 723.004,252.296 725.128,252.296C727.54,252.296 728.584,251.108 729.124,248.984C729.556,247.256 729.772,245.096 729.772,243.296L729.772,242.216C729.772,237.716 730.168,233.324 730.24,228.824ZM751.48,233.9L752.2,228.356L761.704,228.356L761.704,225.908L752.56,225.908L753.172,221.588L750.472,221.588L749.896,225.908L743.272,225.908L743.272,228.356L749.536,228.356L748.492,236.24L753.028,236.24C753.892,236.24 754.972,236.456 755.512,238.22C751.444,240.452 745.036,243.44 747.232,248.696C748.276,251.108 751.012,252.332 755.764,252.296C758.248,252.296 760.552,252.008 762.892,251.72L762.784,249.164C760.624,249.416 758.14,249.74 755.908,249.74C754.576,249.74 750.544,249.884 749.68,247.508C748.564,244.448 752.812,242.432 755.8,240.848L755.8,245.168L758.392,245.168L758.392,239.84C760.336,238.976 762.568,238.076 765.196,237.032L764.152,234.692C761.56,235.736 759.724,236.456 757.852,237.248C757.096,235.016 755.512,233.828 753.028,233.9L751.48,233.9ZM802.312,243.656L800.368,241.892C795.904,247.796 791.908,249.38 789.064,249.38C786.004,249.38 784.672,247.328 784.672,244.376L784.672,223.676L781.828,223.676L781.828,244.376C781.828,249.488 785.14,251.972 789.172,251.972C793.528,251.972 798.064,249.38 802.312,243.656ZM820.204,248.804L820.204,251.288C824.272,252.116 828.052,252.62 831.832,250.856C835.576,249.092 837.628,245.24 836.836,241.46C836.044,237.644 831.976,236.096 828.7,235.844C827.152,235.7 824.452,235.952 821.716,237.14L832.804,225.728L832.804,223.82L817.9,223.82L817.9,226.232L828.844,226.232L816.1,239.48L817.684,241.172C822.4,238.688 826.18,237.968 828.556,238.184C830.86,238.4 833.632,239.552 834.1,242C834.604,244.556 833.164,247.4 830.608,248.624C827.836,249.956 824.128,249.668 820.204,248.804ZM867.508,226.7L867.508,223.964C862.792,223.964 861.172,223.496 857.428,221.192L855.736,223.352C859.732,225.98 861.856,226.7 867.508,226.7ZM860.704,252.584C868.192,245.528 870.676,243.476 871.108,238.76C871.18,237.86 871.108,236.708 870.928,235.844C870.28,232.46 867.652,230.444 863.656,230.444L852.28,230.444L852.28,233L863.656,233C866.5,233 868.12,234.44 868.3,237.068C868.552,240.956 865.96,243.764 863.584,246.104C862,247.724 860.416,249.2 858.652,250.748L860.704,252.584ZM903.4,236.42L903.364,236.42L903.364,239.984C905.2,237.896 907.576,236.024 910.24,236.024C911.68,236.024 913.228,237.104 914.956,238.292C916.972,239.696 919.204,241.244 921.868,241.244C924.532,241.244 926.8,240.164 928.636,238.256L928.636,234.728C926.836,236.816 924.388,238.688 921.724,238.688C920.284,238.688 918.592,237.572 916.864,236.384C914.812,234.98 912.58,233.468 910.132,233.468C907.468,233.468 905.236,234.548 903.4,236.42Z" style="fill:rgb(183,201,228);fill-rule:nonzero;"/>
            </g>
        </g>
    </g>
</svg>
