<svg xmlns="http://www.w3.org/2000/svg" width="816" height="315.77" viewBox="0 0 816 315.77">
  <g id="グループ_50" data-name="グループ 50" transform="translate(-552 -360.232)">
    <g id="グループ_43" data-name="グループ 43" transform="translate(546 -654.768)">
      <g id="グループ_39" data-name="グループ 39" transform="translate(6.699 1015)">
        <g id="グループ_38" data-name="グループ 38">
          <rect id="長方形_51" data-name="長方形 51" width="815.301" height="315.77" rx="32" fill="#93ded2"/>
        </g>
      </g>
      <path id="パス_33" data-name="パス 33" d="M6,1315.66H175.888a14.742,14.742,0,0,1,14.773,14.729v58.917a14.753,14.753,0,0,1-14.773,14.729H6Z" transform="translate(0 -102.869)" fill="#20d0b5"/>
      <path id="パス_34" data-name="パス 34" d="M417.972,1335.25H388.427a14.749,14.749,0,0,0-14.773,14.729v29.459a14.749,14.749,0,0,0,14.773,14.729h29.546a14.749,14.749,0,0,0,14.773-14.729v-29.459A14.749,14.749,0,0,0,417.972,1335.25Z" transform="translate(374.168 -109.572)" fill="#20d0b5"/>
      <path id="パス_35" data-name="パス 35" d="M410.168,1387.1c-8.682-5.881-13.235-11.236-15.1-15.71-5-12.006,9.287-17.742,15.1-10.657,5.817-7.085,20.106-1.348,15.1,10.657C423.4,1375.863,418.85,1381.218,410.168,1387.1Z" transform="translate(367.2 -117.233)" fill="#93ded2"/>
    </g>
    <g id="title" transform="translate(499 384.233)">
      <text id="ファシノ" transform="translate(594.837 147.767)" fill="rgba(0,33,77,0.4)" font-size="104" font-family="'\30 3SmartFontUI'"><tspan x="-208" y="0">ファシノ</tspan></text>
      <text id="ファシノ-2" data-name="ファシノ" transform="translate(591.837 144.767)" fill="#001024" font-size="104" font-family="'\30 3SmartFontUI'"><tspan x="-208" y="0">ファシノ</tspan></text>
      <g id="fascino_logo_noback" transform="translate(-1237.587 -1327.75)">
        <g id="グループ_26" data-name="グループ 26" transform="translate(1362.75 1330.75)">
          <g id="グループ_24" data-name="グループ 24" transform="translate(50.029 57.846)">
            <path id="パス_20" data-name="パス 20" d="M1654.692,376.77a43.971,43.971,0,1,1-43.971-43.971A43.993,43.993,0,0,1,1654.692,376.77Zm-18.067-25.9a14.658,14.658,0,1,1-20.73,0A14.666,14.666,0,0,1,1636.625,350.866Z" transform="translate(-1566.75 -332.799)" fill="rgba(0,33,77,0.4)" fill-rule="evenodd"/>
          </g>
          <g id="グループ_25" data-name="グループ 25" transform="translate(0)">
            <path id="パス_21" data-name="パス 21" d="M159.264,175.636a3.908,3.908,0,0,1,3.746,5.024,60.362,60.362,0,0,0-2.378,16.858,61.071,61.071,0,1,0,119.779-16.863,3.892,3.892,0,0,1,3.73-5c7.255-.017,19.9-.017,25.744-.017a3.909,3.909,0,0,1,3.825,3.1,94.383,94.383,0,0,1,1.9,18.882c0,51.772-84.119,115.912-93.8,115.912S128,249.394,128,197.622a94.087,94.087,0,0,1,1.9-18.881,3.9,3.9,0,0,1,3.821-3.1C139.536,175.636,152.055,175.636,159.264,175.636Zm17.63-64.465a152.944,152.944,0,0,1,18.839-4.715,3.908,3.908,0,0,0,3.153-3.24c.288-1.835.612-3.911.612-3.911A3.909,3.909,0,0,1,203.36,96h37.28a3.908,3.908,0,0,1,3.862,3.305l.624,3.99a3.908,3.908,0,0,0,3.144,3.238c14.354,2.714,28.826,7.377,37.929,13.6,14.658,10.023,16.833,24.1,22.149,40.6a3.908,3.908,0,0,1-3.713,5.126H276.075a3.909,3.909,0,0,1-3.281-1.785,61.057,61.057,0,0,0-102.189,0,3.9,3.9,0,0,1-3.277,1.782c-5.51.006-20.281.006-28.354.006a3.909,3.909,0,0,1-3.714-5.126c5.311-16.507,7.45-30.58,22.109-40.6q1.25-.855,2.632-1.67l-.017-.042a3.909,3.909,0,0,1,2.2-5.069l9.873-3.89a3.909,3.909,0,0,1,4.832,1.708Zm15.792,17.061a3.909,3.909,0,0,0-3.909-3.909h-21.5a3.909,3.909,0,0,0-3.909,3.909v1.954a3.908,3.908,0,0,0,3.909,3.909h21.5a3.908,3.908,0,0,0,3.909-3.909Z" transform="translate(-128 -96)" fill="rgba(0,33,77,0.4)" fill-rule="evenodd"/>
          </g>
        </g>
      </g>
      <g id="fascino_logo_noback-2" data-name="fascino_logo_noback" transform="translate(-1240.587 -1330.75)">
        <g id="グループ_26-2" data-name="グループ 26" transform="translate(1362.75 1330.75)">
          <g id="グループ_24-2" data-name="グループ 24" transform="translate(50.029 57.846)">
            <path id="パス_20-2" data-name="パス 20" d="M1654.692,376.77a43.971,43.971,0,1,1-43.971-43.971A43.993,43.993,0,0,1,1654.692,376.77Zm-18.067-25.9a14.658,14.658,0,1,1-20.73,0A14.666,14.666,0,0,1,1636.625,350.866Z" transform="translate(-1566.75 -332.799)" fill="#001024" fill-rule="evenodd"/>
          </g>
          <g id="グループ_25-2" data-name="グループ 25" transform="translate(0)">
            <path id="パス_21-2" data-name="パス 21" d="M159.264,175.636a3.908,3.908,0,0,1,3.746,5.024,60.362,60.362,0,0,0-2.378,16.858,61.071,61.071,0,1,0,119.779-16.863,3.892,3.892,0,0,1,3.73-5c7.255-.017,19.9-.017,25.744-.017a3.909,3.909,0,0,1,3.825,3.1,94.383,94.383,0,0,1,1.9,18.882c0,51.772-84.119,115.912-93.8,115.912S128,249.394,128,197.622a94.087,94.087,0,0,1,1.9-18.881,3.9,3.9,0,0,1,3.821-3.1C139.536,175.636,152.055,175.636,159.264,175.636Zm17.63-64.465a152.944,152.944,0,0,1,18.839-4.715,3.908,3.908,0,0,0,3.153-3.24c.288-1.835.612-3.911.612-3.911A3.909,3.909,0,0,1,203.36,96h37.28a3.908,3.908,0,0,1,3.862,3.305l.624,3.99a3.908,3.908,0,0,0,3.144,3.238c14.354,2.714,28.826,7.377,37.929,13.6,14.658,10.023,16.833,24.1,22.149,40.6a3.908,3.908,0,0,1-3.713,5.126H276.075a3.909,3.909,0,0,1-3.281-1.785,61.057,61.057,0,0,0-102.189,0,3.9,3.9,0,0,1-3.277,1.782c-5.51.006-20.281.006-28.354.006a3.909,3.909,0,0,1-3.714-5.126c5.311-16.507,7.45-30.58,22.109-40.6q1.25-.855,2.632-1.67l-.017-.042a3.909,3.909,0,0,1,2.2-5.069l9.873-3.89a3.909,3.909,0,0,1,4.832,1.708Zm15.792,17.061a3.909,3.909,0,0,0-3.909-3.909h-21.5a3.909,3.909,0,0,0-3.909,3.909v1.954a3.908,3.908,0,0,0,3.909,3.909h21.5a3.908,3.908,0,0,0,3.909-3.909Z" transform="translate(-128 -96)" fill="#001024" fill-rule="evenodd"/>
          </g>
        </g>
      </g>
      <text id="オリジナルタイムラインとマップで_みんなの地域の魅力を知ろう_" data-name="オリジナルタイムラインとマップで「みんなの地域の魅力を知ろう！」" transform="translate(461 262.767)" fill="#ff5470" font-size="24" font-family="'\30 3SmartFontUI'"><tspan x="-384" y="0">オリジナルタイムライン</tspan><tspan y="0" fill="#112e56">と</tspan><tspan y="0">マップ</tspan><tspan y="0" fill="#112e56">で「みんなの地域の魅力を知ろう！」</tspan></text>
      <text id="Fascino" transform="translate(591.837 60.767)" fill="#001024" font-size="24" font-family="'\30 3SmartFontUI'"><tspan x="-44.544" y="0">Fascino</tspan></text>
    </g>
  </g>
</svg>
